<?xml version="1.0" encoding="UTF-8"?>
<svg xmlns="http://www.w3.org/2000/svg" xmlns:xlink="http://www.w3.org/1999/xlink" viewBox="0 0 80 80" width="80px" height="80px">
<g id="surface183070125">
<path style=" stroke:none;fill-rule:nonzero;fill:rgb(97.647059%,73.725492%,37.64706%);fill-opacity:1;" d="M 34 5 C 33.449219 5 33 5.449219 33 6 L 33 9.386719 C 31.753906 10 30.933594 10.964844 30.476562 12.019531 C 29.101562 12.050781 25.632812 12.367188 22.613281 15.238281 C 20.589844 17.160156 19.429688 19.410156 18.777344 21.261719 C 18.449219 22.1875 18.25 23.011719 18.132812 23.660156 C 18.019531 24.308594 17.960938 24.652344 18.003906 25.097656 L 18 25 L 18 69.332031 C 18 69.585938 18.097656 69.832031 18.269531 70.019531 C 18.269531 70.019531 19.789062 71.601562 23.058594 73.078125 C 26.332031 74.554688 31.425781 76 38.777344 76.003906 C 45.332031 76.003906 49.730469 75.464844 52.511719 74.921875 C 55.292969 74.375 56.550781 73.777344 56.550781 73.777344 C 56.894531 73.609375 57.113281 73.257812 57.109375 72.878906 L 57.109375 67.210938 C 57.113281 66.867188 56.933594 66.542969 56.640625 66.359375 C 56.347656 66.179688 55.980469 66.160156 55.667969 66.3125 C 55.667969 66.3125 55.394531 66.425781 55 66.566406 L 55 56.429688 C 55.179688 56.390625 55.429688 56.359375 55.597656 56.324219 C 57.09375 56 58.054688 55.675781 58.671875 55.414062 C 59.289062 55.148438 59.652344 54.863281 59.652344 54.863281 C 59.871094 54.671875 60 54.398438 60 54.105469 L 60 51 L 60.285156 51 C 63.996094 51 67 47.898438 67 44.132812 L 67 38.496094 C 67 34.460938 64.578125 30.832031 60.894531 29.367188 L 60.886719 29.363281 L 56.9375 27.355469 L 56.9375 23.90625 C 56.9375 23.898438 56.9375 23.890625 56.9375 23.878906 C 56.914062 23.023438 56.703125 18.84375 53.269531 15.480469 C 50.289062 12.566406 46.878906 12.125 45.53125 12.039062 C 45.074219 10.980469 44.253906 10.007812 43 9.386719 L 43 6 C 43 5.449219 42.550781 5 42 5 Z M 35 7 L 41 7 L 41 10 C 40.996094 10.398438 41.226562 10.761719 41.589844 10.925781 L 41.582031 10.949219 C 43.40625 11.539062 43.894531 12.828125 43.945312 14.105469 C 43.730469 14.230469 43.292969 14.394531 42.722656 14.53125 C 41.570312 14.8125 39.878906 15 38 15 C 36.121094 15 34.429688 14.8125 33.277344 14.53125 C 32.707031 14.394531 32.269531 14.226562 32.050781 14.101562 C 32.105469 12.828125 32.597656 11.535156 34.417969 10.949219 L 34.410156 10.925781 C 34.773438 10.761719 35.003906 10.398438 35 10 Z M 38 9 C 37.449219 9 37 9.449219 37 10 C 37 10.550781 37.449219 11 38 11 C 38.550781 11 39 10.550781 39 10 C 39 9.449219 38.550781 9 38 9 Z M 30.019531 14.039062 C 30.011719 14.128906 30 14.222656 30 14.3125 C 30 15.101562 30.558594 15.554688 31.050781 15.835938 C 31.539062 16.117188 32.117188 16.308594 32.804688 16.476562 C 34.183594 16.808594 35.992188 17 38 17 C 40.007812 17 41.816406 16.8125 43.195312 16.480469 C 43.882812 16.3125 44.460938 16.117188 44.949219 15.839844 C 45.4375 15.558594 46 15.101562 46 14.3125 C 46 14.238281 45.988281 14.160156 45.984375 14.082031 C 47.378906 14.265625 49.785156 14.871094 51.871094 16.910156 C 54.742188 19.71875 54.917969 23.21875 54.9375 23.9375 L 54.9375 28 C 54.929688 28.488281 55.277344 28.910156 55.761719 29 L 59.988281 31.152344 C 60.015625 31.164062 60.046875 31.179688 60.082031 31.191406 C 62.070312 31.957031 63.597656 33.539062 64.390625 35.488281 C 63.25 34.558594 61.816406 34 60.25 34 L 38.6875 34 C 34.949219 34 31.9375 37.167969 31.9375 41 L 31.9375 44 C 31.9375 45.949219 32.71875 47.722656 33.976562 49 L 33.144531 49 C 29.753906 49 27 46.191406 27 42.667969 L 27 35.335938 C 27 31.8125 29.753906 29 33.140625 29 L 33.144531 29 C 33.503906 29.003906 33.839844 28.816406 34.019531 28.503906 C 34.203125 28.191406 34.203125 27.808594 34.019531 27.496094 C 33.839844 27.183594 33.503906 26.996094 33.144531 27 C 28.644531 27 25 30.757812 25 35.335938 L 25 42.667969 C 25 47.242188 28.644531 51 33.144531 51 L 58 51 L 58 53.519531 C 57.933594 53.546875 58 53.523438 57.882812 53.574219 C 57.414062 53.773438 56.574219 54.066406 55.179688 54.367188 C 52.390625 54.964844 47.394531 55.585938 38.777344 55.585938 C 36.382812 55.585938 34.28125 55.425781 32.445312 55.164062 C 28.40625 54.585938 24.777344 57.75 24.777344 61.773438 L 24.777344 61.839844 C 24.777344 65.804688 27.710938 69.203125 31.683594 69.820312 C 33.730469 70.140625 36.085938 70.335938 38.777344 70.335938 C 45.332031 70.335938 49.730469 69.800781 52.511719 69.253906 C 54.300781 68.902344 54.511719 68.738281 55.113281 68.515625 L 55.113281 72.132812 C 54.851562 72.246094 54.347656 72.523438 52.128906 72.960938 C 49.492188 73.476562 45.222656 74.003906 38.777344 74.003906 C 31.6875 74 26.890625 72.613281 23.882812 71.257812 C 21.304688 70.09375 20.292969 69.160156 20 68.875 L 20 25 C 20 24.96875 20 24.933594 19.996094 24.902344 C 20.011719 25.046875 20.003906 24.558594 20.105469 24.011719 C 20.203125 23.464844 20.375 22.738281 20.664062 21.925781 C 21.234375 20.296875 22.257812 18.332031 23.992188 16.6875 C 26.125 14.65625 28.617188 14.15625 30.019531 14.039062 Z M 37.160156 27.417969 C 36.609375 27.320312 36.089844 27.679688 35.992188 28.21875 C 35.878906 28.761719 36.238281 29.28125 36.78125 29.390625 C 36.847656 29.402344 36.910156 29.398438 36.972656 29.398438 C 37.441406 29.398438 37.859375 29.070312 37.949219 28.589844 C 38.050781 28.050781 37.699219 27.519531 37.160156 27.417969 Z M 40.898438 28.082031 C 40.351562 28.011719 39.847656 28.390625 39.769531 28.941406 C 39.699219 29.488281 40.082031 29.992188 40.632812 30.0625 C 40.679688 30.070312 40.71875 30.070312 40.769531 30.070312 C 41.257812 30.070312 41.691406 29.710938 41.757812 29.210938 C 41.828125 28.660156 41.441406 28.160156 40.898438 28.082031 Z M 52.121094 28.082031 C 51.570312 28.179688 51.210938 28.699219 51.3125 29.242188 C 51.390625 29.730469 51.808594 30.070312 52.289062 30.070312 C 52.347656 30.070312 52.402344 30.0625 52.460938 30.050781 C 53.011719 29.960938 53.371094 29.441406 53.28125 28.902344 C 53.179688 28.351562 52.660156 27.988281 52.121094 28.082031 Z M 44.652344 28.410156 C 44.101562 28.378906 43.628906 28.808594 43.601562 29.359375 C 43.578125 29.910156 44.011719 30.378906 44.5625 30.410156 L 44.601562 30.410156 C 45.128906 30.410156 45.578125 29.988281 45.601562 29.449219 C 45.628906 28.898438 45.199219 28.429688 44.652344 28.410156 Z M 48.417969 28.449219 C 47.871094 28.46875 47.441406 28.929688 47.460938 29.480469 C 47.472656 30.019531 47.921875 30.449219 48.460938 30.449219 L 48.492188 30.449219 C 49.039062 30.429688 49.472656 29.96875 49.460938 29.417969 C 49.441406 28.871094 48.980469 28.429688 48.417969 28.449219 Z M 38.6875 36 L 40.125 36 C 43.332031 36 46 38.855469 46 42.5 C 46 46.144531 43.332031 49 40.125 49 L 38.6875 49 C 36.078125 49 33.9375 46.792969 33.9375 44 L 35.25 44 C 35.664062 44 36 43.664062 36 43.25 L 36 41.75 C 36 41.335938 35.664062 41 35.25 41 L 33.9375 41 C 33.9375 38.207031 36.078125 36 38.6875 36 Z M 52.945312 36 C 56.265625 36 59 38.867188 59 42.5 C 59 46.132812 56.265625 49 52.945312 49 C 50.570312 49 48.527344 47.527344 47.53125 45.355469 C 47.828125 44.457031 48 43.5 48 42.5 C 48 41.5 47.828125 40.542969 47.53125 39.644531 C 48.527344 37.472656 50.570312 36 52.945312 36 Z M 58.125 36 L 60.25 36 C 62.859375 36 65 38.207031 65 41 L 65 44 C 65 46.480469 63.3125 48.492188 61.109375 48.917969 C 60.851562 48.960938 60.589844 48.992188 60.324219 48.996094 C 60.296875 48.996094 60.273438 49 60.25 49 L 58.125 49 C 59.882812 47.433594 61 45.089844 61 42.5 C 61 39.910156 59.882812 37.566406 58.125 36 Z M 50.75 41 C 50.335938 41 50 41.335938 50 41.75 L 50 43.25 C 50 43.664062 50.335938 44 50.75 44 L 52.25 44 C 52.664062 44 53 43.664062 53 43.25 L 53 41.75 C 53 41.335938 52.664062 41 52.25 41 Z M 53 56.777344 L 53 67 C 53 67.03125 53 67.0625 53.003906 67.09375 C 52.714844 67.160156 52.472656 67.222656 52.128906 67.289062 C 51.28125 67.457031 50.199219 67.617188 49 67.765625 L 49 66 C 49.003906 65.730469 48.898438 65.46875 48.707031 65.277344 C 48.515625 65.085938 48.253906 64.980469 47.984375 64.984375 C 47.433594 64.996094 46.992188 65.449219 47 66 L 47 67.992188 C 45.320312 68.148438 43.273438 68.242188 41 68.289062 L 41 66 C 41.003906 65.730469 40.898438 65.46875 40.707031 65.277344 C 40.515625 65.085938 40.253906 64.980469 39.984375 64.984375 C 39.433594 64.996094 38.992188 65.449219 39 66 L 39 68.332031 C 38.917969 68.332031 38.859375 68.335938 38.777344 68.335938 C 36.566406 68.335938 34.730469 68.144531 33 67.914062 L 33 66 C 33.003906 65.640625 32.816406 65.304688 32.503906 65.121094 C 32.191406 64.941406 31.808594 64.941406 31.496094 65.121094 C 31.183594 65.304688 30.996094 65.640625 31 66 L 31 67.503906 C 28.527344 66.675781 26.777344 64.46875 26.777344 61.835938 L 26.777344 61.769531 C 26.777344 59.339844 28.648438 57.359375 31 57.121094 L 31 59 C 30.996094 59.359375 31.183594 59.695312 31.496094 59.878906 C 31.808594 60.058594 32.191406 60.058594 32.503906 59.878906 C 32.816406 59.695312 33.003906 59.359375 33 59 L 33 57.246094 C 34.730469 57.457031 36.640625 57.582031 38.777344 57.582031 C 38.855469 57.582031 38.921875 57.582031 39 57.582031 L 39 59 C 38.996094 59.359375 39.183594 59.695312 39.496094 59.878906 C 39.808594 60.058594 40.191406 60.058594 40.503906 59.878906 C 40.816406 59.695312 41.003906 59.359375 41 59 L 41 57.5625 C 43.25 57.535156 45.257812 57.464844 47 57.359375 L 47 59 C 46.996094 59.359375 47.183594 59.695312 47.496094 59.878906 C 47.808594 60.058594 48.191406 60.058594 48.503906 59.878906 C 48.816406 59.695312 49.003906 59.359375 49 59 L 49 57.214844 C 50.539062 57.089844 51.867188 56.941406 53 56.777344 Z M 32 61.5 C 31.449219 61.5 31 61.949219 31 62.5 C 31 63.050781 31.449219 63.5 32 63.5 C 32.550781 63.5 33 63.050781 33 62.5 C 33 61.949219 32.550781 61.5 32 61.5 Z M 40 61.5 C 39.449219 61.5 39 61.949219 39 62.5 C 39 63.050781 39.449219 63.5 40 63.5 C 40.550781 63.5 41 63.050781 41 62.5 C 41 61.949219 40.550781 61.5 40 61.5 Z M 48 61.5 C 47.449219 61.5 47 61.949219 47 62.5 C 47 63.050781 47.449219 63.5 48 63.5 C 48.550781 63.5 49 63.050781 49 62.5 C 49 61.949219 48.550781 61.5 48 61.5 Z M 48 61.5 "/>
</g>
</svg>
